<svg width="24" height="24" viewBox="0 0 24 24" fill="none" xmlns="http://www.w3.org/2000/svg">
<path d="M13.4574 19.14C13.0987 18.9528 12.8031 18.6641 12.6074 18.31C12.3421 17.9644 12.1391 17.5753 12.0074 17.16C11.6474 15.75 12.1674 13.81 11.4874 12.05C11.0107 10.8731 10.1221 9.90991 8.98739 9.34001C8.51448 9.07318 7.9922 8.90543 7.45236 8.84698C6.91253 8.78852 6.36645 8.84059 5.84739 9.00001C4.82567 9.31525 3.9409 9.96737 3.33739 10.85C3.03669 11.3023 2.79159 11.7891 2.60739 12.3C2.41413 12.8035 2.27665 13.3266 2.19739 13.86C2.05739 14.99 2.27739 16.17 2.08739 17.21C2.03914 17.531 1.92549 17.8386 1.75347 18.1138C1.58146 18.389 1.35474 18.626 1.08739 18.81C0.964847 18.9015 0.834321 18.9819 0.697386 19.05C0.56579 19.108 0.428329 19.1515 0.287386 19.18C0.233212 19.1884 0.181988 19.2102 0.138339 19.2434C0.0946914 19.2765 0.0599956 19.3201 0.0373864 19.37C0.0128145 19.418 0 19.4711 0 19.525C0 19.5789 0.0128145 19.632 0.0373864 19.68C0.224235 19.9573 0.446064 20.2094 0.697386 20.43C0.886857 20.6045 1.11731 20.7283 1.36739 20.79C1.40553 20.7972 1.44472 20.7966 1.48264 20.7883C1.52056 20.7801 1.55643 20.7643 1.58814 20.7419C1.61985 20.7195 1.64674 20.691 1.66722 20.6581C1.6877 20.6251 1.70136 20.5883 1.70739 20.55C1.71462 20.5113 1.71415 20.4715 1.706 20.4329C1.69786 20.3944 1.68219 20.3578 1.6599 20.3253C1.63761 20.2928 1.60914 20.265 1.57611 20.2435C1.54308 20.222 1.50613 20.2072 1.46739 20.2C1.29257 20.1286 1.13802 20.0153 1.01739 19.87L0.847386 19.71H0.927386C1.10764 19.634 1.28153 19.5437 1.44739 19.44C1.81178 19.2233 2.12767 18.9339 2.3754 18.5898C2.62314 18.2457 2.79741 17.8543 2.88739 17.44C2.98774 16.936 3.0413 16.4238 3.04739 15.91C3.12688 16.5202 3.32747 17.1084 3.63739 17.64C4.02825 18.3176 4.57719 18.8905 5.23739 19.31C3.9501 19.701 2.7948 20.4377 1.89739 21.44C1.66994 21.7029 1.46897 21.9876 1.29739 22.29C1.04994 22.7216 0.839202 23.1732 0.667386 23.64C0.649645 23.7116 0.658024 23.7872 0.691017 23.8532C0.72401 23.9192 0.779454 23.9712 0.847386 24C0.884145 24.0146 0.923419 24.0217 0.96295 24.021C1.00248 24.0204 1.04149 24.0119 1.07773 23.9961C1.11398 23.9803 1.14674 23.9575 1.17414 23.929C1.20154 23.9005 1.22303 23.8668 1.23739 23.83C1.3996 23.4836 1.58675 23.1493 1.79739 22.83C1.99429 22.5185 2.22946 22.233 2.49739 21.98C3.39082 21.1612 4.48415 20.5921 5.66739 20.33C6.81463 20.0216 8.02863 20.0705 9.14739 20.47C9.85675 20.7328 10.4844 21.1777 10.9674 21.76C11.4868 22.3567 11.9087 23.0317 12.2174 23.76C12.2286 23.8071 12.2497 23.8513 12.2793 23.8896C12.3089 23.9278 12.3463 23.9594 12.3891 23.982C12.4319 24.0047 12.479 24.0179 12.5273 24.0209C12.5756 24.0239 12.624 24.0165 12.6692 23.9993C12.7145 23.982 12.7555 23.9553 12.7896 23.921C12.8237 23.8866 12.85 23.8454 12.8669 23.8C12.8838 23.7546 12.8908 23.7062 12.8874 23.6579C12.884 23.6096 12.8704 23.5626 12.8474 23.52C12.5767 22.6844 12.1677 21.9002 11.6374 21.2C11.0972 20.4529 10.3741 19.8572 9.53739 19.47C9.37739 19.41 9.21739 19.37 9.04739 19.32C9.33243 19.166 9.5977 18.978 9.83739 18.76C10.3259 18.2717 10.7222 17.6992 11.0074 17.07C11.0074 17.01 11.0574 16.94 11.0874 16.88C11.1076 17.0532 11.1444 17.2239 11.1974 17.39C11.4251 17.9944 11.7643 18.5508 12.1974 19.03C12.3971 19.2775 12.6331 19.4932 12.8974 19.67C12.8676 19.7223 12.8342 19.7724 12.7974 19.82C12.7234 19.9428 12.6109 20.0378 12.4774 20.09C12.3925 20.1205 12.3232 20.1835 12.2848 20.2651C12.2463 20.3466 12.2419 20.4401 12.2724 20.525C12.3029 20.6099 12.3659 20.6792 12.4474 20.7176C12.529 20.756 12.6225 20.7605 12.7074 20.73C12.9187 20.6595 13.1082 20.5355 13.2574 20.37C13.4515 20.1587 13.6072 19.915 13.7174 19.65C13.742 19.602 13.7548 19.5489 13.7548 19.495C13.7548 19.4411 13.742 19.388 13.7174 19.34C13.6971 19.2857 13.662 19.2382 13.616 19.2028C13.57 19.1674 13.5151 19.1457 13.4574 19.14ZM10.2474 16.67C9.96934 17.174 9.60361 17.6244 9.16739 18C8.90626 18.202 8.61639 18.3638 8.30739 18.48C7.98545 18.5946 7.64863 18.662 7.30739 18.68C7.06196 18.6914 6.81617 18.6678 6.57739 18.61C6.32567 18.549 6.081 18.4619 5.84739 18.35C5.25063 18.0701 4.73456 17.6435 4.34739 17.11C3.97828 16.6195 3.73455 16.0462 3.63739 15.44C4.28739 15.49 4.93739 15.54 5.63739 15.56H6.92739C7.35739 15.56 7.78739 15.56 8.21739 15.48C9.07739 15.41 9.92739 15.31 10.7774 15.21C10.7063 15.7288 10.5256 16.2265 10.2474 16.67ZM9.11739 14.41C9.13237 14.2337 9.13237 14.0564 9.11739 13.88C9.0667 13.5429 8.99659 13.209 8.90739 12.88C8.90485 12.8406 8.89454 12.802 8.87707 12.7666C8.85959 12.7312 8.83529 12.6995 8.80556 12.6735C8.77582 12.6475 8.74125 12.6276 8.70381 12.615C8.66637 12.6024 8.6268 12.5973 8.58739 12.6C8.54796 12.6025 8.50942 12.6129 8.47399 12.6303C8.43855 12.6478 8.40692 12.6721 8.3809 12.7018C8.35489 12.7316 8.335 12.7662 8.32238 12.8036C8.30977 12.841 8.30467 12.8806 8.30739 12.92C8.27281 13.2522 8.25612 13.586 8.25739 13.92C8.26754 14.0712 8.28759 14.2215 8.31739 14.37H6.84739C6.41405 14.37 5.98405 14.39 5.55739 14.43C4.72739 14.49 3.90739 14.59 3.07739 14.68C3.07739 14.44 3.07739 14.2 3.15739 13.97C3.24743 13.5201 3.38487 13.081 3.56739 12.66C3.74987 12.2491 3.97797 11.86 4.24739 11.5C4.71659 10.8355 5.39121 10.3436 6.16739 10.1C6.92919 9.87501 7.74913 9.96132 8.44739 10.34C9.37016 10.7679 10.1084 11.5132 10.5274 12.44C10.7821 13.0773 10.9242 13.7541 10.9474 14.44L9.11739 14.41Z" fill="black"/>
<path d="M23.6873 5.3C23.6873 4.44 23.6873 2.35 23.6373 1.45C23.6303 1.15715 23.5246 0.87525 23.3373 0.65C22.7037 0.379084 22.0258 0.226565 21.3373 0.2C20.1273 0.08 18.4773 0 17.3073 0C16.8473 0 12.9373 0 10.6473 0.18C10.0039 0.180906 9.36744 0.313635 8.77729 0.57C8.68412 0.655869 8.61808 0.767095 8.58729 0.89C8.49355 1.32054 8.4433 1.75941 8.43729 2.2C8.33729 4 8.37729 7 8.37729 7.66C8.3912 7.74142 8.43346 7.8153 8.4966 7.86857C8.55974 7.92183 8.63968 7.95105 8.72229 7.95105C8.80489 7.95105 8.88483 7.92183 8.94797 7.86857C9.01111 7.8153 9.05337 7.74142 9.06729 7.66C9.06729 7.12 9.06729 5.24 9.16729 3.6C9.16729 2.74 9.25729 1.96 9.32729 1.47C9.32729 1.36 9.32729 1.24 9.38729 1.18C9.44729 1.12 9.62729 1.18 9.74729 1.18C10.6101 1.07395 11.478 1.01387 12.3473 1H17.2973C18.2973 1 19.5673 1.11 20.6773 1.22C21.3973 1.29 22.0273 1.37 22.4273 1.45H22.4873C22.5673 2.32 22.5373 4.35 22.4873 5.18C22.4873 5.68 22.5673 7.46 22.5673 9C22.5845 9.6677 22.5578 10.3358 22.4873 11C22.4928 11.0899 22.4928 11.1801 22.4873 11.27C22.2575 11.2548 22.027 11.2548 21.7973 11.27H20.6973C19.6973 11.21 18.5073 11.12 17.9873 11.15C17.7663 11.1425 17.5511 11.2214 17.3873 11.37C17.1373 11.65 16.8973 12.32 16.4573 13.05C16.2566 13.3776 16.0256 13.6856 15.7673 13.97C15.5593 14.1978 15.3059 14.3796 15.0235 14.5036C14.741 14.6276 14.4358 14.6911 14.1273 14.69C14.0473 14.13 14.1273 12.6 14.1273 11.93C14.1212 11.7877 14.0977 11.6466 14.0573 11.51C14.0327 11.4615 13.9974 11.4192 13.9541 11.3863C13.9108 11.3534 13.8606 11.3307 13.8073 11.32C13.7678 11.3129 13.7273 11.3137 13.6882 11.3225C13.6491 11.3312 13.6121 11.3478 13.5795 11.3711C13.5469 11.3944 13.5192 11.424 13.4982 11.4582C13.4773 11.4923 13.4633 11.5304 13.4573 11.57C13.4573 11.57 13.4573 14.97 13.5273 15.11C13.5553 15.1762 13.5992 15.2345 13.6549 15.2798C13.7107 15.3251 13.7768 15.3561 13.8473 15.37C14.1774 15.4357 14.5172 15.4357 14.8473 15.37C15.3936 15.2343 15.8918 14.9506 16.2873 14.55C16.5944 14.2458 16.8692 13.9107 17.1073 13.55C17.4873 12.96 17.7173 12.41 17.9373 12.11H17.9873C18.4873 12.11 19.5873 12.23 20.5873 12.32C21.1466 12.3603 21.708 12.3603 22.2673 12.32C22.6285 12.3171 22.9792 12.1979 23.2673 11.98C23.5296 11.4951 23.6638 10.9513 23.6573 10.4C23.7873 8.75 23.6773 6 23.6873 5.3Z" fill="black"/>
<path d="M14.1875 9.00002C14.3775 9.17002 14.6975 9.55002 15.0075 9.79002C15.2097 9.96851 15.4602 10.0833 15.7275 10.12C16.0848 10.1331 16.4364 10.0276 16.7275 9.82002C17.1917 9.4654 17.6144 9.0595 17.9875 8.61002C18.6114 8.00798 19.165 7.33701 19.6375 6.61002C19.9697 6.07055 20.1717 5.46112 20.2275 4.83002C20.2615 4.48693 20.2109 4.14073 20.0802 3.82171C19.9494 3.50269 19.7425 3.22057 19.4775 3.00002C19.2029 2.77258 18.871 2.62519 18.5182 2.57403C18.1654 2.52288 17.8053 2.56993 17.4775 2.71002C17.1827 2.82227 16.9114 2.98843 16.6775 3.20002C16.4425 3.41523 16.222 3.64573 16.0175 3.89002C15.9164 3.69499 15.7958 3.51072 15.6575 3.34002C15.4855 3.12096 15.2755 2.93466 15.0375 2.79002C14.7956 2.66217 14.5261 2.59534 14.2525 2.59534C13.9789 2.59534 13.7094 2.66217 13.4675 2.79002C12.7789 3.12446 12.2505 3.71757 11.9975 4.44002C11.7654 5.18615 11.8335 5.99339 12.1875 6.69002C12.716 7.56956 13.3926 8.35107 14.1875 9.00002ZM12.9075 4.60002C13.0274 4.17591 13.284 3.80327 13.6375 3.54002C13.7823 3.40423 13.9642 3.31461 14.1601 3.28255C14.356 3.2505 14.557 3.27747 14.7375 3.36002C14.91 3.45324 15.0655 3.57496 15.1975 3.72002C15.4111 3.96815 15.5956 4.23992 15.7475 4.53002C15.7654 4.56587 15.7904 4.59776 15.8209 4.6238C15.8514 4.64983 15.8868 4.66949 15.925 4.68161C15.9632 4.69373 16.0035 4.69806 16.0434 4.69436C16.0834 4.69065 16.1221 4.67897 16.1575 4.66002C16.223 4.6448 16.2823 4.60991 16.3275 4.56002C16.5873 4.26681 16.8681 3.99276 17.1675 3.74002C17.3415 3.59375 17.5417 3.48177 17.7575 3.41002C17.9483 3.34207 18.1538 3.32663 18.3526 3.36533C18.5514 3.40404 18.7361 3.49546 18.8875 3.63002C19.035 3.76468 19.147 3.93378 19.2133 4.12224C19.2796 4.31069 19.2982 4.51263 19.2675 4.71002C19.1921 5.1935 19.0112 5.65443 18.7375 6.06002C18.276 6.70817 17.7463 7.30492 17.1575 7.84002C16.9675 8.04002 16.6875 8.36002 16.3775 8.64002C16.0675 8.92002 16.0275 9.00002 15.8475 9.00002L14.9775 8.18002C14.2689 7.61976 13.6602 6.94353 13.1775 6.18002C12.889 5.71825 12.7921 5.16214 12.9075 4.63002V4.60002Z" fill="black"/>
</svg>
