<svg width="24" height="22" viewBox="0 0 24 22" fill="none" xmlns="http://www.w3.org/2000/svg">
<path d="M22.6098 4.13012C22.91 3.83395 23.141 3.47506 23.2862 3.07916C23.4314 2.68326 23.4873 2.26014 23.4498 1.84012C23.1898 -0.829882 18.9998 -0.159882 16.4398 4.47012C16.3991 4.53785 16.3868 4.61891 16.4055 4.69567C16.4242 4.77244 16.4725 4.83872 16.5398 4.88012C16.5761 4.90674 16.6177 4.92515 16.6619 4.93405C16.706 4.94295 16.7515 4.94214 16.7953 4.93168C16.8391 4.92121 16.88 4.90133 16.9153 4.87344C16.9507 4.84554 16.9795 4.81028 16.9998 4.77012C17.7998 3.50012 19.5198 1.63012 20.9998 1.34012C21.3984 1.19799 21.8371 1.21957 22.2198 1.40012C22.6598 1.73012 22.4198 2.65012 22.0998 3.11012L21.3498 3.84012C21.2798 3.96012 20.7098 4.37012 21.0498 4.84012C21.3898 5.31012 22.0498 4.84012 22.6598 5.54012C23.7498 6.75012 20.8898 7.43012 20.9698 8.24012C20.9698 8.60012 21.3998 8.66012 21.8198 8.75012C23.5398 9.07012 21.1998 11.9001 18.5198 12.2301C18.4323 12.2425 18.3528 12.2876 18.2971 12.3562C18.2415 12.4248 18.2139 12.512 18.2198 12.6001C18.2998 13.3201 20.2798 12.5001 20.8698 12.1901C21.6018 11.8383 22.2523 11.3376 22.7798 10.7201C22.9544 10.54 23.0906 10.3262 23.18 10.0918C23.2695 9.85736 23.3103 9.6072 23.3 9.35651C23.2897 9.10582 23.2285 8.85985 23.1202 8.63354C23.0119 8.40724 22.8586 8.20534 22.6698 8.04012C24.6998 6.68012 24.1698 4.74012 22.6098 4.13012Z" fill="black"/>
<path d="M5.47991 11.9201C4.77571 11.8011 4.09842 11.5572 3.47991 11.2001C2.79991 10.8201 1.80991 10.0601 1.63991 9.28011C1.35991 7.92011 2.84991 8.93012 2.99991 7.93012C3.00589 7.81909 2.98329 7.70839 2.93426 7.60859C2.88524 7.5088 2.81144 7.42325 2.71991 7.36012C2.53991 7.23012 2.05991 6.95012 2.02991 6.93012C1.76706 6.76738 1.53094 6.56499 1.32991 6.33011C1.21404 6.21104 1.13425 6.06159 1.09976 5.89905C1.06528 5.73652 1.07751 5.56755 1.13505 5.41167C1.19258 5.2558 1.29307 5.11941 1.42489 5.01826C1.5567 4.91711 1.71446 4.85535 1.87991 4.84012C2.09991 4.84012 2.64991 4.84011 2.99991 4.52011C3.62991 3.73011 1.75991 3.45012 1.62991 1.84012C1.60145 1.7074 1.60766 1.56959 1.64795 1.43998C1.68823 1.31036 1.76124 1.19331 1.85991 1.10012C2.00364 1.0003 2.17494 0.947857 2.34991 0.950115C3.29311 0.996944 4.18933 1.37598 4.87991 2.02012C5.72645 2.72935 6.46136 3.56202 7.05991 4.49012C7.07947 4.5231 7.10537 4.55188 7.13611 4.57479C7.16686 4.5977 7.20185 4.61429 7.23905 4.62359C7.27625 4.63289 7.31492 4.63472 7.35283 4.62897C7.39074 4.62323 7.42714 4.61002 7.45991 4.59012C7.49407 4.57043 7.52402 4.54421 7.54804 4.51295C7.57206 4.48168 7.58968 4.44599 7.59989 4.40791C7.61011 4.36984 7.61272 4.33012 7.60758 4.29103C7.60243 4.25194 7.58963 4.21425 7.56991 4.18012C6.9864 3.15855 6.25138 2.23135 5.38991 1.43011C4.79141 0.853011 4.07006 0.418834 3.27991 0.160115C2.91326 0.051085 2.53243 -0.00283769 2.14991 0.000114997C1.83603 0.0169283 1.53229 0.117025 1.26991 0.290115C1.06243 0.438158 0.890898 0.63096 0.767999 0.854255C0.6451 1.07755 0.573984 1.32562 0.559914 1.58012C0.524866 1.99543 0.581988 2.41336 0.727196 2.80405C0.872405 3.19473 1.10212 3.54851 1.39991 3.84012C1.05362 3.97468 0.744887 4.1908 0.499914 4.47012C0.196597 4.79841 0.0194439 5.22358 -8.5755e-05 5.67011C-0.010956 6.08895 0.115472 6.49984 0.359914 6.84012C0.633554 7.20045 0.972844 7.50581 1.35991 7.74011C1.12482 7.90353 0.943781 8.13331 0.839914 8.40012C0.736387 8.68843 0.712211 8.99926 0.769914 9.30011C0.836637 9.70747 1.00904 10.0902 1.26991 10.4101C1.79119 11.003 2.42295 11.4887 3.12991 11.8401C3.84311 12.2069 4.61456 12.4472 5.40991 12.5501C5.49859 12.5585 5.58704 12.5318 5.65623 12.4757C5.72542 12.4196 5.76983 12.3386 5.77991 12.2501C5.78026 12.1676 5.74964 12.0879 5.6941 12.0268C5.63856 11.9657 5.56214 11.9276 5.47991 11.9201Z" fill="black"/>
<path d="M8.38983 16.2101C8.3119 16.2073 8.23596 16.235 8.17809 16.2873C8.12022 16.3395 8.08498 16.4123 8.07983 16.4901C7.95983 17.0501 7.80983 17.5901 7.70983 18.1501C7.66181 18.3878 7.62841 18.6283 7.60983 18.8701C7.60983 19.1101 7.60983 19.3501 7.55983 19.5901V21.2901C7.55049 21.3765 7.57461 21.4632 7.62723 21.5324C7.67986 21.6016 7.75699 21.6481 7.84278 21.6621C7.92857 21.6762 8.01649 21.6569 8.08848 21.6082C8.16046 21.5594 8.21105 21.485 8.22983 21.4001C8.37983 20.8301 8.53983 20.2901 8.65983 19.7201C8.70983 19.4801 8.74983 19.2401 8.77983 18.9901C8.79465 18.747 8.79465 18.5032 8.77983 18.2601C8.77983 17.6701 8.70983 17.1101 8.65983 16.5201C8.66255 16.482 8.65771 16.4437 8.6456 16.4075C8.63349 16.3713 8.61434 16.3378 8.58925 16.309C8.56416 16.2802 8.53363 16.2566 8.49941 16.2396C8.46518 16.2227 8.42795 16.2126 8.38983 16.2101Z" fill="black"/>
<path d="M12.11 15.9401C12.1166 15.8606 12.0914 15.7816 12.0398 15.7207C11.9882 15.6597 11.9146 15.6217 11.835 15.6151C11.7554 15.6085 11.6765 15.6337 11.6156 15.6853C11.5546 15.7369 11.5166 15.8105 11.51 15.8901C11.3623 16.5302 11.2786 17.1834 11.26 17.8401C11.2668 18.2146 11.2935 18.5885 11.34 18.9601C11.4101 19.4971 11.4402 20.0386 11.43 20.5801C11.4122 20.6676 11.4294 20.7585 11.4781 20.8334C11.5267 20.9082 11.6028 20.9609 11.69 20.9801C11.7786 20.995 11.8695 20.9753 11.944 20.9251C12.0184 20.8748 12.0707 20.7979 12.09 20.7101C12.2965 20.063 12.4076 19.3893 12.42 18.7101C12.43 18.3258 12.4099 17.9413 12.36 17.5601C12.29 17.0301 12.14 16.5001 12.11 15.9401Z" fill="black"/>
<path d="M15.9098 18.0501C15.7998 17.5801 15.6398 17.1501 15.5098 16.6901C15.4998 16.6122 15.4597 16.5413 15.398 16.4927C15.3362 16.4441 15.2579 16.4216 15.1798 16.4301C15.1417 16.4338 15.1046 16.4451 15.0709 16.4633C15.0371 16.4814 15.0072 16.5061 14.9831 16.5358C14.9589 16.5656 14.9408 16.5999 14.93 16.6366C14.9191 16.6734 14.9157 16.712 14.9198 16.7501C14.8683 17.2251 14.8416 17.7024 14.8398 18.1801C14.8528 18.5812 14.9065 18.9799 14.9998 19.3701C15.0998 19.8301 15.2298 20.2701 15.3398 20.7301C15.3475 20.8185 15.3894 20.9005 15.4567 20.9584C15.524 21.0163 15.6112 21.0457 15.6998 21.0401C15.7446 21.0363 15.7881 21.0238 15.8279 21.0031C15.8677 20.9824 15.9031 20.9541 15.9319 20.9197C15.9607 20.8853 15.9824 20.8455 15.9958 20.8027C16.0092 20.7598 16.014 20.7148 16.0098 20.6701C16.0348 20.1938 16.0348 19.7164 16.0098 19.2401C16.0249 19.0404 16.0249 18.8398 16.0098 18.6401C15.9919 18.4411 15.9585 18.2439 15.9098 18.0501Z" fill="black"/>
<path d="M16.8099 6.39013C16.5708 6.26841 16.308 6.20017 16.0399 6.19013C14.5813 6.10061 13.1185 6.10061 11.6599 6.19013C10.1259 6.22346 8.60159 6.44171 7.11989 6.84013C6.81989 6.98013 6.38989 7.25013 6.38989 8.60013C6.39431 10.2706 6.48777 11.9396 6.66989 13.6001C6.69162 13.7656 6.76864 13.9189 6.88845 14.0351C7.00826 14.1512 7.16383 14.2235 7.32989 14.2401C8.46989 14.2401 12.3999 14.1301 14.7699 14.0101C15.5499 14.0101 16.1699 13.9401 16.4599 13.9101C16.5957 13.8984 16.728 13.8611 16.8499 13.8001C17.0438 13.6042 17.1609 13.3451 17.1799 13.0701C17.3433 11.857 17.4235 10.6342 17.4199 9.41013C17.4332 8.65893 17.3696 7.90835 17.2299 7.17013C17.1734 6.87312 17.0268 6.60075 16.8099 6.39013ZM15.8099 7.30013C15.9129 7.28873 16.0169 7.28873 16.1199 7.30013C15.5199 7.62013 14.2299 8.30013 13.0699 8.84013L11.8399 9.40013C11.3799 9.60013 11.2899 9.69013 10.7699 9.40013C10.2499 9.11013 9.76989 8.81013 9.25989 8.40013C8.74989 7.99013 8.29989 7.84013 7.91989 7.51013C8.54297 7.41529 9.17044 7.35187 9.79989 7.32013C11.7845 7.19852 13.7745 7.19185 15.7599 7.30013H15.8099ZM16.1799 12.8401C16.1799 12.9201 16.0699 12.9301 15.9899 12.9401C14.9899 13.0101 12.9299 13.2101 10.9899 13.3401C8.54989 13.5001 7.61989 13.5401 7.33989 13.5501C7.32675 13.5515 7.31346 13.5503 7.3008 13.5465C7.28814 13.5427 7.27635 13.5364 7.26612 13.5281C7.25589 13.5197 7.24742 13.5094 7.24121 13.4977C7.23499 13.4861 7.23114 13.4733 7.22989 13.4601C7.14847 12.6528 7.11508 11.8414 7.12989 11.0301C7.12989 9.89013 7.12989 8.64013 7.22989 7.94013C7.91844 8.63213 8.64989 9.28008 9.41989 9.88013C9.89986 10.296 10.4621 10.6061 11.0699 10.7901C11.7558 10.7036 12.4146 10.4681 12.9999 10.1001C14.1049 9.44791 15.1762 8.74034 16.2099 7.98013C16.2099 8.22013 16.2599 8.49013 16.2799 8.79013C16.3385 10.1408 16.3051 11.494 16.1799 12.8401Z" fill="black"/>
</svg>
