<svg width="24" height="24" viewBox="0 0 24 24" fill="none" xmlns="http://www.w3.org/2000/svg">
<path fill-rule="evenodd" clip-rule="evenodd" d="M23.9001 5.24195C23.8712 4.14384 23.7508 3.05005 23.5401 1.97195C23.4804 1.59086 23.2978 1.23972 23.0201 0.971954C22.1377 0.617088 21.2005 0.41748 20.2501 0.381954C16.7662 0.0664216 13.2674 -0.0537666 9.77009 0.0219542C7.42678 0.0231617 5.08687 0.200326 2.77009 0.551954C2.04999 0.622973 1.36582 0.900809 0.80009 1.35195C0.424724 2.06542 0.219378 2.856 0.20009 3.66195C-0.0180171 6.44311 -0.0647722 9.23505 0.0600896 12.022C0.118741 15.1689 0.43311 18.3059 1.00009 21.402C1.07698 21.8359 1.25895 22.2445 1.53009 22.592C2.08352 22.9305 2.71232 23.1263 3.36009 23.162C5.57109 23.4108 7.79524 23.5244 10.0201 23.502C14.174 23.5569 18.3269 23.3297 22.4501 22.822C22.4903 22.8173 22.5292 22.8043 22.5641 22.7837C22.599 22.7631 22.6292 22.7354 22.6528 22.7024C22.6763 22.6695 22.6927 22.6319 22.7008 22.5922C22.709 22.5525 22.7087 22.5115 22.7001 22.472C22.6854 22.3931 22.6408 22.323 22.5755 22.2764C22.5102 22.2298 22.4294 22.2103 22.3501 22.222C18.2486 22.6543 14.1224 22.808 10.0001 22.682C7.81665 22.6643 5.63617 22.5173 3.47009 22.242C3.01279 22.2165 2.56618 22.0938 2.16009 21.882C1.91258 21.3479 1.77324 20.7701 1.75009 20.182C1.41359 17.4641 1.22332 14.7302 1.18009 11.992C1.07534 9.24416 1.13545 6.49255 1.36009 3.75195C1.36325 3.18166 1.47879 2.61757 1.70009 2.09195C1.79093 2.02542 1.89236 1.97471 2.00009 1.94195C2.44647 1.79526 2.90491 1.68818 3.37009 1.62195C6.23215 1.2604 9.11543 1.09335 12.0001 1.12195C15.2701 1.12195 18.5501 1.20195 20.6201 1.42195C21.2387 1.45096 21.8507 1.56193 22.4401 1.75195C22.3101 1.86195 22.6201 2.17195 22.6901 2.56195C22.9247 4.12171 23.0583 5.69498 23.0901 7.27195C23.2501 11.682 23.1601 17.552 23.0901 21.272C23.0888 21.3179 23.0965 21.3637 23.1129 21.4067C23.1292 21.4497 23.1539 21.489 23.1855 21.5224C23.2171 21.5558 23.2549 21.5827 23.2969 21.6015C23.3389 21.6203 23.3841 21.6307 23.4301 21.632C23.5212 21.632 23.6087 21.5965 23.6741 21.533C23.7395 21.4695 23.7775 21.383 23.7801 21.292C23.9201 16.962 24.1201 9.75195 23.9001 5.24195Z" fill="black"/>
<path fill-rule="evenodd" clip-rule="evenodd" d="M21.1501 12.042C21.2798 11.8609 21.3654 11.652 21.4001 11.432C21.5498 10.2683 21.5933 9.09351 21.5301 7.92198C21.5011 6.75768 21.3807 5.59745 21.1701 4.45198C21.1324 4.23147 21.0316 4.02657 20.8801 3.86198C20.7667 3.76121 20.6287 3.69221 20.4801 3.66198C19.7784 3.52619 19.0647 3.46252 18.3501 3.47198C16.5624 3.43823 14.7745 3.5318 13.0001 3.75198C12.5201 3.83198 12.3201 4.47198 12.3201 4.49198C12.2501 6.06198 12.1201 8.70198 12.1701 10.342C12.1791 10.8177 12.2429 11.2908 12.3601 11.752C12.4119 11.8854 12.4982 12.0027 12.6101 12.092C12.9712 12.2618 13.3617 12.3602 13.7601 12.382C15.0383 12.5248 16.3239 12.5916 17.6101 12.582C18.6164 12.6139 19.623 12.5301 20.6101 12.332C20.8127 12.285 20.9991 12.1849 21.1501 12.042ZM20.3001 10.882V11.202C20.3001 11.302 20.0401 11.312 19.8801 11.332C18.865 11.4566 17.8428 11.5134 16.8201 11.502C15.6501 11.502 14.4701 11.502 13.7301 11.412C13.5501 11.412 13.3701 11.312 13.2501 11.292C13.2275 11.2372 13.2107 11.1803 13.2001 11.122C13.0888 10.3733 13.022 9.61861 13.0001 8.86198V4.51198C13.0001 4.26198 12.8701 4.38198 13.1001 4.35198C14.3302 4.24246 15.5661 4.2124 16.8001 4.26198C17.7838 4.27337 18.7657 4.34685 19.7401 4.48198C19.9301 4.48198 20.1101 4.63198 20.2001 4.62198C20.2901 4.61198 20.2001 4.88198 20.2001 5.00198C20.3172 5.98125 20.384 6.96588 20.4001 7.95198C20.4241 8.92977 20.3907 9.90812 20.3001 10.882Z" fill="black"/>
<path fill-rule="evenodd" clip-rule="evenodd" d="M8.16001 5.65195C8.35639 5.66704 8.55364 5.66704 8.75001 5.65195C8.94306 5.66677 9.13696 5.66677 9.33001 5.65195C9.90001 5.57195 10.39 5.46195 10.68 5.42195C10.7614 5.40804 10.8353 5.36578 10.8886 5.30264C10.9418 5.2395 10.9711 5.15956 10.9711 5.07695C10.9711 4.99435 10.9418 4.9144 10.8886 4.85127C10.8353 4.78813 10.7614 4.74586 10.68 4.73195C10.39 4.73195 9.89001 4.60195 9.30001 4.56195H8.71001C8.51681 4.55202 8.32322 4.55202 8.13001 4.56195C7.59001 4.64195 7.13001 4.77195 6.79001 4.83195C6.74534 4.82383 6.69943 4.82562 6.65552 4.8372C6.61162 4.84877 6.57079 4.86986 6.53593 4.89895C6.50107 4.92804 6.47302 4.96444 6.45378 5.00557C6.43454 5.04669 6.42456 5.09155 6.42456 5.13695C6.42456 5.18236 6.43454 5.22721 6.45378 5.26834C6.47302 5.30946 6.50107 5.34586 6.53593 5.37495C6.57079 5.40405 6.61162 5.42513 6.65552 5.43671C6.69943 5.44828 6.74534 5.45007 6.79001 5.44195C7.24206 5.53936 7.69955 5.60949 8.16001 5.65195Z" fill="black"/>
<path fill-rule="evenodd" clip-rule="evenodd" d="M3.62 8.68194C3.5806 8.68194 3.54159 8.6897 3.50519 8.70477C3.46879 8.71985 3.43572 8.74195 3.40786 8.76981C3.38001 8.79766 3.35791 8.83074 3.34283 8.86713C3.32776 8.90353 3.32 8.94254 3.32 8.98194C3.31866 9.02134 3.32511 9.06062 3.33896 9.09753C3.35282 9.13444 3.37381 9.16826 3.40074 9.19705C3.42768 9.22584 3.46002 9.24904 3.49593 9.26532C3.53183 9.2816 3.57059 9.29065 3.61 9.29194C3.97 9.29194 4.95 9.46194 6.1 9.51194H7.15C7.5 9.51194 7.87 9.51194 8.21 9.45194C9.39 9.36194 10.38 9.23194 10.67 9.21194C10.7514 9.19803 10.8253 9.15576 10.8786 9.09262C10.9318 9.02949 10.961 8.94954 10.961 8.86694C10.961 8.78433 10.9318 8.70439 10.8786 8.64125C10.8253 8.57812 10.7514 8.53585 10.67 8.52194C10.38 8.52194 9.37 8.41194 8.19 8.36194H7.13C6.78 8.36194 6.42 8.36194 6.13 8.41194C5 8.49194 4 8.65194 3.62 8.68194Z" fill="black"/>
<path fill-rule="evenodd" clip-rule="evenodd" d="M3.64009 12.4819C3.99009 12.4819 4.97009 12.6519 6.12009 12.7019H7.18009C7.54009 12.7019 7.89009 12.7019 8.23009 12.6419C9.41009 12.5519 10.4001 12.4219 10.6901 12.4019C10.7347 12.4019 10.7789 12.3931 10.8202 12.3761C10.8615 12.359 10.8989 12.3339 10.9305 12.3024C10.9621 12.2708 10.9871 12.2333 11.0042 12.1921C11.0213 12.1508 11.0301 12.1066 11.0301 12.0619C11.0301 11.9708 10.9946 11.8833 10.9311 11.8179C10.8676 11.7526 10.7812 11.7145 10.6901 11.7119C10.4001 11.7119 9.40009 11.6019 8.21009 11.5519H7.15009C6.80009 11.5519 6.44009 11.5519 6.10009 11.6019C4.97009 11.6919 4.00009 11.8519 3.65009 11.8819C3.60986 11.8806 3.56977 11.8874 3.53221 11.9018C3.49465 11.9163 3.46039 11.9382 3.43146 11.9662C3.40254 11.9942 3.37954 12.0277 3.36384 12.0648C3.34814 12.1018 3.34007 12.1417 3.34009 12.1819C3.34009 12.2615 3.37169 12.3378 3.42796 12.3941C3.48422 12.4503 3.56052 12.4819 3.64009 12.4819Z" fill="black"/>
<path fill-rule="evenodd" clip-rule="evenodd" d="M20.54 15.4719C20.54 15.3791 20.5032 15.2901 20.4375 15.2244C20.3719 15.1588 20.2829 15.1219 20.19 15.1219C19.53 15.1219 17.19 14.9619 14.48 14.8619C13.68 14.8619 12.86 14.8619 12.03 14.8019C11.2 14.7419 10.37 14.8019 9.57004 14.8019C6.95004 14.8019 4.66004 14.9619 3.84004 15.0119C3.76127 15.0144 3.68641 15.0468 3.63068 15.1026C3.57495 15.1583 3.54254 15.2332 3.54004 15.3119C3.54002 15.3522 3.5481 15.392 3.56379 15.4291C3.57949 15.4662 3.60249 15.4997 3.63141 15.5277C3.66034 15.5557 3.6946 15.5776 3.73216 15.592C3.76972 15.6065 3.80981 15.6133 3.85004 15.6119C4.67004 15.6119 6.94004 15.8119 9.56004 15.9119C10.36 15.9119 11.19 15.9119 12.01 15.9619C12.83 16.0119 13.67 15.9619 14.47 15.9619C17.19 15.9619 19.53 15.8519 20.19 15.8219C20.2829 15.8219 20.3719 15.7851 20.4375 15.7194C20.5032 15.6538 20.54 15.5648 20.54 15.4719Z" fill="black"/>
<path fill-rule="evenodd" clip-rule="evenodd" d="M11.7802 18.212C11.2002 18.212 10.5902 18.152 9.9902 18.142C9.3902 18.132 8.7802 18.142 8.1902 18.142C6.2702 18.142 4.6002 18.302 4.0002 18.342C3.92054 18.3469 3.84561 18.3815 3.79011 18.4388C3.7346 18.4962 3.70254 18.5722 3.7002 18.652C3.70017 18.6922 3.70825 18.7321 3.72395 18.7691C3.73965 18.8062 3.76264 18.8397 3.79157 18.8677C3.82049 18.8957 3.85476 18.9176 3.89232 18.9321C3.92988 18.9465 3.96997 18.9533 4.0102 18.952C4.6102 18.952 6.2602 19.152 8.1802 19.252C8.7602 19.252 9.3602 19.302 9.9702 19.312C10.5802 19.322 11.1802 19.312 11.7602 19.312C13.7602 19.312 15.4602 19.202 15.9502 19.182C16.0413 19.1794 16.1278 19.1413 16.1912 19.076C16.2547 19.0106 16.2902 18.9231 16.2902 18.832C16.2902 18.7418 16.2544 18.6553 16.1906 18.5915C16.1268 18.5278 16.0404 18.492 15.9502 18.492C15.4702 18.452 13.7702 18.312 11.7802 18.212Z" fill="black"/>
</svg>
